# xmcd
# 
# Track frame offsets:
#     150
#     13587
#     31734
#     63164
#     90267
#     116125
#     135564
#     148951
#     160350
#     173559
#     190692
#     207263
#     220708
#     239899
#     256797
#     271964
#     297003
# 
# Disc length: 4101
# 
# Revision: 1
# Processed by: cddbd v1.5.2PL0 Copyright (c) Steve Scherf et al.
# Submitted via: fre:ac v1.0.17
# 
DISCID=ef100311
DTITLE=Various Artist - Jazz For You 1 Over The Rainbow
DYEAR=2012
DGENRE=Jazz
TTITLE0=All Of Me - Teddy Wilson
TTITLE1=Lullaby Of Birdland - Sarah Vaughan
TTITLE2=Waltz For Debby - Bill Evans
TTITLE3=My Funny Valentine - Miles Davis
TTITLE4=Cherokee - Clifford Brown and Max Roach
TTITLE5=Over The Rainbow - Ella Fitzgerald
TTITLE6=Stella By Starlight - Charlie Parker
TTITLE7=It's Only A Paper Moon - Oscar Peterson
TTITLE8=On The Street Where You Live - Mel Torme
TTITLE9=How Insensitive - Wes Montgomery
TTITLE10=Everything Happens To Me - Chet Baker
TTITLE11=On The Sunny Side Of The Street - Johnny Hodges
TTITLE12=Work Song - Nat Adderley
TTITLE13=So Danco Samba - Stan Getz and Joao Gilberto
TTITLE14=When I Fall In Love - Helen Merrill
TTITLE15=Night In Tunisia - Dizzy Gillespie
TTITLE16=The Days Of Wine And Roses - Tony Bennett and Bill Evans
EXTD=YEAR: 2012
EXTT0=
EXTT1=
EXTT2=
EXTT3=
EXTT4=
EXTT5=
EXTT6=
EXTT7=
EXTT8=
EXTT9=
EXTT10=
EXTT11=
EXTT12=
EXTT13=
EXTT14=
EXTT15=
EXTT16=
PLAYORDER=
